<svg version="1.1" id="Icons" xmlns="http://www.w3.org/2000/svg" viewBox="0 0 32 32" xml:space="preserve">
  <style>
    .st0{fill:none;stroke:#000;stroke-width:2;stroke-linecap:round;stroke-linejoin:round;stroke-miterlimit:10}
  </style>
  <path d="M3 12h3c.4 0 .7-.2.9-.5l1.3-2.1C9 7.9 10.7 7 12.4 7h7.2c1.7 0 3.4.9 4.3 2.4l1.3 2.1c.2.3.5.5.9.5h3c.6 0 1-.4 1-1s-.4-1-1-1h-2.4l-1-1.6C24.3 6.3 22 5 19.6 5h-7.2c-2.4 0-4.7 1.3-6 3.4l-1 1.6H3c-.6 0-1 .4-1 1s.4 1 1 1zm4.9 6.5c.1-.2.2-.3.2-.5H2v1h4.8c.5 0 .8-.2 1.1-.5zm16.2 0c.2.3.6.5 1 .5H30v-1h-6.1c0 .2.1.3.2.5z"/>
  <path d="M22.5 19.6c-.4-.5-.6-1.1-.6-1.6-.5-.1-.9-.5-.9-1 0-.6.4-1 1-1h7.6c-.8-1.8-2.5-3-4.6-3H7c-2 0-3.8 1.2-4.6 3H10c.6 0 1 .4 1 1 0 .5-.4.9-.9 1 0 .6-.3 1.1-.6 1.6-.6.9-1.6 1.4-2.7 1.4H2v4c0 1.7 1.3 3 3 3h2c1.7 0 3-1.3 3-3v-1h12v1c0 1.7 1.3 3 3 3h2c1.7 0 3-1.3 3-3v-4h-4.8c-1.1 0-2.1-.5-2.7-1.4zM19 21h-6c-.6 0-1-.4-1-1s.4-1 1-1h6c.6 0 1 .4 1 1s-.4 1-1 1z"/>
</svg>
