<svg xmlns:xlink="http://www.w3.org/1999/xlink" xmlns="http://www.w3.org/2000/svg" viewBox="0 0 380 120" preserveAspectRatio="xMidYMid meet" class="css-2shm9y" id="eehbedae" width="380"  height="120" ><defs id="SvgjsDefs1015"></defs><g id="SvgjsG1016" featurekey="rootContainer" transform="matrix(1,0,0,1,0,0)" fill="#F9F8EB"><rect y="0" height="1" width="1" opacity="0" fill="#F9F8EB"></rect><rect y="115" width="380" height="5" fill="#F9F8EB"></rect></g><g id="SvgjsG1017" featurekey="nYIUkx-0" transform="matrix(1.0562934740772099,0,0,1.0562934740772099,-15.841285339451762,0.14533613624391073)" fill="#76B39D"><rect xmlns="http://www.w3.org/2000/svg" x="25.249" y="20.252" transform="matrix(0.7071 0.7071 -0.7071 0.7071 46.463 -22.1737)" fill="none" stroke="#76B39D" stroke-width="2px" stroke-linecap="round" stroke-linejoin="round" stroke-miterlimit="10" width="49.499" height="49.497"></rect><path xmlns="http://www.w3.org/2000/svg" stroke="#76B39D" stroke-width="2px" stroke-linecap="round" stroke-linejoin="round" stroke-miterlimit="10" d="M49.999,69.395  l24.394-24.392L50,20.608L25.608,45.002L49.999,69.395z M63.785,45.002L49.999,58.787L36.214,45.002L50,31.215L63.785,45.002z" fill="#76B39D"></path><rect xmlns="http://www.w3.org/2000/svg" x="47.754" y="42.754" transform="matrix(-0.707 0.7072 -0.7072 -0.707 117.1804 41.4576)" stroke="#76B39D" stroke-width="2px" stroke-linecap="round" stroke-linejoin="round" stroke-miterlimit="10" width="4.496" height="4.497" fill="#76B39D"></rect><polygon xmlns="http://www.w3.org/2000/svg" stroke="#76B39D" stroke-width="2px" stroke-linecap="round" stroke-linejoin="round" stroke-miterlimit="10" points="  49.999,80 20,50.004 15.002,55 49.999,90 85,55 80,50 " fill="#76B39D"></polygon></g><g id="SvgjsG1018" featurekey="PXhRQw-0" transform="matrix(1.9320853728684317,0,0,1.9320853728684317,98.8454328569319,23.40748776278941)" fill="#F9F8EB"><path d="M8.72 17.52 l-4.5 0 l-0.88 2.48 l-3.26 0 l4.9 -12.24 l3 0 l4.9 12.24 l-3.28 0 z M5.2 14.74 l2.54 0 l-1.26 -3.56 z M21 10 l3 0 l0 5 c0 3.06 -2.12 5.1 -5.1 5.1 c-3.06 0 -5.1 -2.14 -5.1 -5.1 l0 -5 l3 0 l0 5 c0 1.34 0.68 2.32 2.1 2.32 c1.46 0 2.1 -0.96 2.1 -2.32 l0 -5 z M31.64 10.34 l0 2.78 l-2.8 0 l0 1.88 c0 1.54 1.02 2.32 2.5 2.32 c0.18 0 0.34 -0.02 0.48 -0.04 s0.26 -0.04 0.4 -0.06 l0 2.78 c-0.18 0.02 -0.32 0.06 -0.42 0.08 c-0.12 0.02 -0.32 0.02 -0.58 0.02 c-3.02 0 -5.38 -2.06 -5.38 -5.1 l0 -7.4 l3 0 l0 2.74 l2.8 0 z M38.08 17.32 c1.46 0 2.3 -0.86 2.3 -2.32 s-0.84 -2.32 -2.3 -2.32 s-2.3 0.86 -2.3 2.32 s0.84 2.32 2.3 2.32 z M38.08 20.1 c-3.08 0 -5.3 -2.04 -5.3 -5.1 c0 -3.16 2.3 -5.1 5.3 -5.1 c3.1 0 5.3 2.04 5.3 5.1 c0 3.14 -2.32 5.1 -5.3 5.1 z M48.62 7.76 l10.2 0 l0 2.78 l-3.6 0 l0 9.46 l-3 0 l0 -9.46 l-3.6 0 l0 -2.78 z M63.239999999999995 15 l0 5 l-3 0 l0 -4.98 c0 -3.32 2.44 -5.12 5.52 -5.12 c0.1 0 0.24 0 0.38 0.02 s0.3 0.06 0.44 0.08 l0 2.9 c-0.1 -0.02 -0.22 -0.04 -0.36 -0.06 s-0.26 -0.04 -0.36 -0.04 c-0.5 0 -0.9 0.06 -1.24 0.16 c-0.56 0.2 -1.06 0.58 -1.24 1.18 c-0.1 0.26 -0.14 0.56 -0.14 0.86 z M74.89999999999999 15 c-0.08 -1.46 -0.74 -2.32 -2.26 -2.32 c-0.42 0 -0.78 0.06 -1.08 0.18 c-0.92 0.42 -1.26 1.2 -1.26 2.16 c0 0.32 0.04 0.62 0.14 0.88 c0.3 1.04 1.2 1.42 2.2 1.42 c1.52 0 2.26 -0.82 2.26 -2.32 z M78.69999999999999 20 l-3 0 c-0.2 -0.5 -0.38 -1 -0.5 -1.52 c-0.68 1.12 -1.72 1.62 -3 1.62 c-2.86 0 -4.9 -2.4 -4.9 -5.14 c0 -3.16 2.36 -5.06 5.34 -5.06 c3.18 0 5.18 2.04 5.26 5.1 c0.02 0.26 0.02 0.56 0.02 0.92 c0 1.4 0.22 2.8 0.78 4.08 z M86.91999999999999 15 c0 -1.5 -0.74 -2.32 -2.26 -2.32 c-0.42 0 -0.78 0.06 -1.08 0.18 c-0.56 0.26 -0.94 0.64 -1.12 1.24 c-0.1 0.28 -0.14 0.58 -0.14 0.9 s0.04 0.62 0.14 0.9 c0.16 0.58 0.58 1 1.12 1.22 c0.3 0.14 0.66 0.2 1.08 0.2 c1.52 0 2.26 -0.82 2.26 -2.32 z M86.91999999999999 11 l0 -5 l3 0 l0 9 c0 3.18 -2.26 5.1 -5.28 5.1 c-3.08 0 -5.32 -2 -5.32 -5.06 c0 -2.82 2.08 -5.14 4.92 -5.14 c1.06 0 1.98 0.3 2.68 1.1 z M94.61999999999999 13.8 c0.3 0.1 0.64 0.18 1 0.22 c0.36 0.06 0.7 0.08 1.02 0.08 c0.4 0 1.42 -0.08 1.42 -0.66 c0 -0.62 -0.88 -0.64 -1.32 -0.64 c-0.88 0 -1.64 0.2 -2.12 1 z M100.27999999999999 16.88 l0 2.8 c-1.12 0.26 -2.24 0.44 -3.4 0.44 c-3.18 0 -5.54 -1.86 -5.54 -5.08 c0 -3.18 2.28 -5.14 5.3 -5.14 c2.06 0 4.44 0.98 4.44 3.32 c0 2.32 -2.52 3.18 -4.46 3.18 c-0.74 0 -1.48 -0.2 -2.16 -0.48 c0.4 1.12 1.6 1.3 2.64 1.3 c0.54 0 1.08 -0.02 1.62 -0.1 c0.5 -0.04 1.08 -0.1 1.56 -0.24 z M102.1 19.7 l0 -2.82 c0.24 0.06 0.54 0.12 0.88 0.16 c0.34 0.06 0.7 0.1 1.08 0.12 s0.76 0.04 1.16 0.06 s0.78 0.04 1.12 0.04 c0.94 0 1.6 -0.06 2 -0.16 c0.38 -0.1 0.58 -0.28 0.58 -0.56 c0 -0.24 -0.18 -0.42 -0.36 -0.56 c-0.66 -0.44 -1.44 -0.62 -2.22 -0.8 c-2.2 -0.44 -4.22 -1.32 -4.22 -3.84 c0 -2.98 2.82 -3.68 5.24 -3.68 c1.34 0 2.7 0.14 4 0.46 l0 2.82 c-0.2 -0.06 -0.46 -0.1 -0.78 -0.16 c-0.34 -0.04 -0.68 -0.08 -1.06 -0.12 c-0.78 -0.08 -1.52 -0.12 -2.3 -0.12 c-0.44 0 -1.36 0 -1.78 0.16 c-0.28 0.1 -0.46 0.22 -0.46 0.54 c0 0.16 0.04 0.3 0.12 0.42 c0.08 0.14 0.22 0.24 0.4 0.34 c0.54 0.3 1.24 0.48 1.84 0.62 c0.5 0.12 1 0.26 1.52 0.4 c1.76 0.48 2.92 1.46 2.92 3.34 c0 3.1 -3.08 3.76 -5.56 3.76 c-1.36 0 -2.78 -0.1 -4.12 -0.42 z M116.29999999999998 15 c0 1.48 0.74 2.32 2.24 2.32 c0.42 0 0.8 -0.06 1.1 -0.2 c0.56 -0.22 0.94 -0.64 1.14 -1.22 c0.08 -0.28 0.12 -0.58 0.12 -0.9 s-0.04 -0.62 -0.12 -0.9 c-0.22 -0.62 -0.56 -0.96 -1.14 -1.24 c-0.3 -0.12 -0.68 -0.18 -1.1 -0.18 c-1.5 0 -2.24 0.84 -2.24 2.32 z M116.29999999999998 19 l0 5 l-3 0 l0 -9 c0 -3.2 2.26 -5.1 5.28 -5.1 c3.08 0 5.32 2.02 5.32 5.08 c0 2.84 -2.14 5.12 -4.98 5.12 c-0.58 0 -1.08 -0.1 -1.5 -0.3 c-0.44 -0.18 -0.82 -0.46 -1.12 -0.8 z M130.01999999999998 17.32 c1.46 0 2.3 -0.86 2.3 -2.32 s-0.84 -2.32 -2.3 -2.32 s-2.3 0.86 -2.3 2.32 s0.84 2.32 2.3 2.32 z M130.01999999999998 20.1 c-3.08 0 -5.3 -2.04 -5.3 -5.1 c0 -3.16 2.3 -5.1 5.3 -5.1 c3.1 0 5.3 2.04 5.3 5.1 c0 3.14 -2.32 5.1 -5.3 5.1 z M142.37999999999997 10.34 l0 2.78 l-2.8 0 l0 1.88 c0 1.54 1.02 2.32 2.5 2.32 c0.18 0 0.34 -0.02 0.48 -0.04 s0.26 -0.04 0.4 -0.06 l0 2.78 c-0.18 0.02 -0.32 0.06 -0.42 0.08 c-0.12 0.02 -0.32 0.02 -0.58 0.02 c-3.02 0 -5.38 -2.06 -5.38 -5.1 l0 -7.4 l3 0 l0 2.74 l2.8 0 z" fill="#F9F8EB"></path></g><g id="SvgjsG1019" featurekey="mlRtrp-0" transform="matrix(0.45158634242775036,0,0,0.45158634242775036,126.05180416851857,77.18201067135536)" fill="#76B39D"><path d="M5.7227 20 l-3.623 0 l0 -13.418 l9.082 0 c0.97656 0 1.805 0.10091 2.4854 0.30273 s1.2337 0.48828 1.6602 0.85938 s0.73568 0.81868 0.92774 1.3428 s0.28809 1.1084 0.28809 1.7529 c0 0.56641 -0.079756 1.0612 -0.23926 1.4844 s-0.37435 0.78613 -0.64453 1.0889 s-0.58432 0.55827 -0.94239 0.7666 s-0.73568 0.38086 -1.1328 0.51758 l4.3945 5.3027 l-4.2383 0 l-4.0625 -4.9414 l-3.9551 0 l0 4.9414 z M12.881 10.8203 c0 -0.26042 -0.03418 -0.48174 -0.10254 -0.66403 s-0.18718 -0.33041 -0.35645 -0.44435 s-0.39551 -0.19694 -0.67871 -0.24902 s-0.6364 -0.078125 -1.0596 -0.078125 l-4.9609 0 l0 2.8711 l4.9609 0 c0.42317 0 0.77637 -0.026045 1.0596 -0.078125 s0.50944 -0.13509 0.67871 -0.24902 s0.28809 -0.26205 0.35645 -0.44435 s0.10254 -0.40365 0.10254 -0.66407 z M35.49413125 20 l0 -13.418 l13.584 0 l0 2.8613 l-9.8633 0 l0 2.2168 l9.3555 0 l0 2.8613 l-9.3555 0 l0 2.6172 l10 0 l0 2.8613 l-13.721 0 z M76.633296875 20 l-4.2188 0 l-6.7871 -13.418 l4.043 0 l4.8828 10.098 l4.873 -10.098 l4.043 0 z M110.7794375 17.4609 l-7.4805 0 l-1.2598 2.5391 l-4.043 0 l7.0215 -13.418 l4.043 0 l7.0215 13.418 l-4.043 0 z M104.5976375 14.8437 l4.9023 0 l-2.4414 -4.9414 z M150.25765625 20 l0 -9.4238 l-4.9805 9.4238 l-3.4766 0 l-4.9805 -9.4238 l0 9.4238 l-3.623 0 l0 -13.418 l4.9219 0 l5.4199 10.156 l5.4199 -10.156 l4.9023 0 l0 13.418 l-3.6035 0 z M188.05690625 11.1621 c0 0.67058 -0.097656 1.2874 -0.29297 1.8506 s-0.50944 1.0481 -0.94238 1.4551 s-0.99443 0.72429 -1.6846 0.95215 s-1.53 0.3418 -2.5195 0.3418 l-6.0156 0 l0 4.2383 l-3.623 0 l0 -13.418 l9.6387 0 c0.98955 0 1.8294 0.1123 2.5195 0.33691 s1.2517 0.54036 1.6846 0.94727 s0.74707 0.8903 0.94238 1.4502 s0.29297 1.1751 0.29297 1.8457 z M184.39490625 11.2207 c0 -0.3125 -0.043945 -0.58104 -0.13184 -0.80565 s-0.23274 -0.40853 -0.43457 -0.55176 s-0.4655 -0.24902 -0.79102 -0.31738 s-0.72591 -0.10254 -1.2012 -0.10254 l-5.2344 0 l0 3.457 l5.2344 0 c0.47526 0 0.87565 -0.027666 1.2012 -0.083008 s0.58919 -0.14975 0.79102 -0.28321 s0.34668 -0.30762 0.43457 -0.52246 s0.13184 -0.47852 0.13184 -0.79102 z M236.828546875 14.5215 l0 5.4785 l-3.6133 0 l0 -5.4785 l-6.5039 -7.9395 l4.0625 0 l4.2578 5.4004 l4.2383 -5.4004 l4.0625 0 z M277.722765625 13.300799999999999 c0 1.1523 -0.21159 2.1696 -0.63477 3.0518 s-1.0286 1.6194 -1.8164 2.2119 s-1.7432 1.04 -2.8662 1.3428 s-2.3845 0.4541 -3.7842 0.4541 s-2.6644 -0.15137 -3.7939 -0.4541 s-2.0915 -0.75032 -2.8857 -1.3428 s-1.4063 -1.3298 -1.8359 -2.2119 s-0.64453 -1.8994 -0.64453 -3.0518 s0.21484 -2.1696 0.64453 -3.0518 s1.0417 -1.6194 1.8359 -2.2119 s1.7562 -1.04 2.8857 -1.3428 s2.3942 -0.4541 3.7939 -0.4541 s2.6611 0.15137 3.7842 0.4541 s2.0784 0.75032 2.8662 1.3428 s1.3933 1.3298 1.8164 2.2119 s0.63477 1.8994 0.63477 3.0518 z M274.060765625 13.300799999999999 c0 -0.5013 -0.079756 -1.001 -0.23926 -1.499 s-0.44271 -0.94563 -0.84961 -1.3428 s-0.96191 -0.7194 -1.665 -0.9668 s-1.5983 -0.37109 -2.6855 -0.37109 c-0.72917 0 -1.3704 0.056963 -1.9238 0.1709 s-1.0319 0.27182 -1.4355 0.47364 s-0.74219 0.43783 -1.0156 0.70802 s-0.49153 0.5599 -0.6543 0.86915 s-0.27832 0.63151 -0.34668 0.9668 s-0.10254 0.66568 -0.10254 0.99121 c0 0.33203 0.03418 0.66731 0.10254 1.0059 s0.18392 0.66244 0.34668 0.97169 s0.38086 0.59733 0.6543 0.86426 s0.61198 0.49967 1.0156 0.69823 s0.88216 0.35481 1.4355 0.46875 s1.1946 0.1709 1.9238 0.1709 c1.0872 0 1.9824 -0.1237 2.6855 -0.37109 s1.2581 -0.56966 1.665 -0.9668 s0.69011 -0.84473 0.84961 -1.3428 s0.23926 -0.99775 0.23926 -1.499 z M311.780796875 15.4785 c0 0.67058 -0.16599 1.3021 -0.49802 1.8945 s-0.83008 1.1101 -1.4941 1.5527 s-1.4925 0.79264 -2.4854 1.0498 s-2.1533 0.38574 -3.4814 0.38574 s-2.4919 -0.12858 -3.4912 -0.38574 s-1.8311 -0.60709 -2.4951 -1.0498 s-1.1621 -0.96028 -1.4941 -1.5527 s-0.49805 -1.2239 -0.49805 -1.8945 l0 -8.8965 l3.6133 0 l0 7.5977 c0 0.44922 0.056963 0.87402 0.1709 1.2744 s0.32878 0.75032 0.64453 1.0498 s0.75846 0.53711 1.3281 0.71289 s1.3103 0.26367 2.2217 0.26367 c0.90495 0 1.6406 -0.087891 2.207 -0.26367 s1.0075 -0.41341 1.3232 -0.71289 s0.52896 -0.64941 0.63964 -1.0498 s0.16602 -0.8252 0.16602 -1.2744 l0 -7.5977 l3.623 0 l0 8.8965 l0 0 z M334.423871875 20 l-3.623 0 l0 -13.418 l9.082 0 c0.97656 0 1.805 0.10091 2.4854 0.30273 s1.2337 0.48828 1.6602 0.85938 s0.73568 0.81868 0.92774 1.3428 s0.28809 1.1084 0.28809 1.7529 c0 0.56641 -0.079756 1.0612 -0.23926 1.4844 s-0.37435 0.78613 -0.64453 1.0889 s-0.58432 0.55827 -0.94239 0.7666 s-0.73568 0.38086 -1.1328 0.51758 l4.3945 5.3027 l-4.2383 0 l-4.0625 -4.9414 l-3.9551 0 l0 4.9414 z M341.582171875 10.8203 c0 -0.26042 -0.03418 -0.48174 -0.10254 -0.66403 s-0.18718 -0.33041 -0.35645 -0.44435 s-0.39551 -0.19694 -0.67871 -0.24902 s-0.6364 -0.078125 -1.0596 -0.078125 l-4.9609 0 l0 2.8711 l4.9609 0 c0.42317 0 0.77637 -0.026045 1.0596 -0.078125 s0.50944 -0.13509 0.67871 -0.24902 s0.28809 -0.26205 0.35645 -0.44435 s0.10254 -0.40365 0.10254 -0.66407 z M390.255903125 20 l-3.623 0 l0 -13.418 l9.082 0 c0.97656 0 1.805 0.10091 2.4854 0.30273 s1.2337 0.48828 1.6602 0.85938 s0.73568 0.81868 0.92774 1.3428 s0.28809 1.1084 0.28809 1.7529 c0 0.56641 -0.079756 1.0612 -0.23926 1.4844 s-0.37435 0.78613 -0.64453 1.0889 s-0.58432 0.55827 -0.94239 0.7666 s-0.73568 0.38086 -1.1328 0.51758 l4.3945 5.3027 l-4.2383 0 l-4.0625 -4.9414 l-3.9551 0 l0 4.9414 z M397.414203125 10.8203 c0 -0.26042 -0.03418 -0.48174 -0.10254 -0.66403 s-0.18718 -0.33041 -0.35645 -0.44435 s-0.39551 -0.19694 -0.67871 -0.24902 s-0.6364 -0.078125 -1.0596 -0.078125 l-4.9609 0 l0 2.8711 l4.9609 0 c0.42317 0 0.77637 -0.026045 1.0596 -0.078125 s0.50944 -0.13509 0.67871 -0.24902 s0.28809 -0.26205 0.35645 -0.44435 s0.10254 -0.40365 0.10254 -0.66407 z M420.027334375 20 l0 -13.418 l3.623 0 l0 13.418 l-3.623 0 z M459.20296875 13.2812 c0 0.85938 -0.094385 1.6228 -0.28318 2.29 s-0.4541 1.2483 -0.7959 1.7432 s-0.75195 0.91472 -1.2305 1.2598 s-1.0107 0.62174 -1.5967 0.83007 s-1.2175 0.3597 -1.8945 0.4541 s-1.3835 0.1416 -2.1191 0.1416 l-8.5156 0 l0 -13.418 l8.4961 0 c0.73567 0 1.4421 0.047197 2.1191 0.1416 s1.3103 0.24577 1.8994 0.4541 s1.1247 0.4834 1.6064 0.8252 s0.89355 0.76172 1.2354 1.2598 s0.6071 1.0791 0.7959 1.7432 s0.2832 1.4226 0.2832 2.2754 z M455.55096875 13.2812 c0 -0.64453 -0.083008 -1.2044 -0.24902 -1.6797 s-0.43294 -0.86752 -0.80078 -1.1768 s-0.84799 -0.54037 -1.4404 -0.69337 s-1.3151 -0.22949 -2.168 -0.22949 l-4.502 0 l0 7.5781 l4.502 0 c0.85286 0 1.5755 -0.076494 2.168 -0.22949 s1.0726 -0.38737 1.4404 -0.70313 s0.63477 -0.71126 0.80078 -1.1865 s0.24902 -1.0352 0.24902 -1.6797 z M477.421865625 20 l0 -13.418 l13.584 0 l0 2.8613 l-9.8633 0 l0 2.2168 l9.3555 0 l0 2.8613 l-9.3555 0 l0 2.6172 l10 0 l0 2.8613 l-13.721 0 z" fill="#76B39D"></path></g></svg>
